HIERARCHY
ROOT hip
{
	OFFSET 0.000000 0.000000 0.000000 
	CHANNELS 6 Xposition Yposition Zposition Xrotation Zrotation Yrotation
	JOINT abdomen
	{
		OFFSET 0.000000 3.402643 0.000000 
		CHANNELS 3 Xrotation Zrotation Yrotation
		JOINT chest
		{
			OFFSET 0.000000 8.438565 -0.680529 
			CHANNELS 3 Xrotation Zrotation Yrotation
			JOINT neck
			{
				OFFSET 0.000000 10.207942 -0.272212 
				CHANNELS 3 Xrotation Zrotation Yrotation
				JOINT head
				{
					OFFSET 0.000000 3.130431 0.000000 
					CHANNELS 3 Xrotation Zrotation Yrotation
					End Site
					{
						OFFSET 0.000000 3.130435 0.000000 
					}
				}
			}
			JOINT lCollar
			{
				OFFSET 3.470700 6.669187 -0.816635 
				CHANNELS 3 Yrotation Zrotation Xrotation
				JOINT lShldr
				{
					OFFSET 3.198488 0.000000 0.000000 
					CHANNELS 3 Zrotation Yrotation Xrotation
					JOINT lForeArm
					{
						OFFSET 10.139888 0.000000 0.000000 
						CHANNELS 3 Yrotation Zrotation Xrotation
						JOINT lHand
						{
							OFFSET 8.370511 0.000000 0.000000 
							CHANNELS 3 Zrotation Yrotation Xrotation
							End Site
							{
								OFFSET 4.083176 0.000000 0.000000 
							}
						}
					}
				}
			}
			JOINT rCollar
			{
				OFFSET -3.470700 6.669187 -0.816635 
				CHANNELS 3 Yrotation Zrotation Xrotation
				JOINT rShldr
				{
					OFFSET -3.198488 0.000000 0.000000 
					CHANNELS 3 Zrotation Yrotation Xrotation
					JOINT rForeArm
					{
						OFFSET -10.139888 0.000000 0.000000 
						CHANNELS 3 Yrotation Zrotation Xrotation
						JOINT rHand
						{
							OFFSET -8.370511 0.000000 0.000000 
							CHANNELS 3 Zrotation Yrotation Xrotation
							End Site
							{
								OFFSET -4.083176 0.000000 0.000000 
							}
						}
					}
				}
			}
		}
	}
	JOINT lThigh
	{
		OFFSET 5.308129 -1.633274 1.361059 
		CHANNELS 3 Xrotation Zrotation Yrotation
		JOINT lShin
		{
			OFFSET -2.041588 -20.007561 0.000000 
			CHANNELS 3 Xrotation Zrotation Yrotation
			JOINT lFoot
			{
				OFFSET 0.000000 -19.190928 -1.224953 
				CHANNELS 3 Xrotation Yrotation Zrotation
				End Site
				{
					OFFSET 0.000000 -2.449906 4.627600 
				}
			}
		}
	}
	JOINT rThigh
	{
		OFFSET -5.308129 -1.633274 1.361059 
		CHANNELS 3 Xrotation Zrotation Yrotation
		JOINT rShin
		{
			OFFSET 2.041588 -20.007561 0.000000 
			CHANNELS 3 Xrotation Zrotation Yrotation
			JOINT rFoot
			{
				OFFSET 0.000000 -19.190928 -1.224953 
				CHANNELS 3 Xrotation Yrotation Zrotation
				End Site
				{
					OFFSET 0.000000 -2.449906 4.627600 
				}
			}
		}
	}
}
MOTION
Frames: 9
Frame Time: 0.033333
-0.013838 47.950897 -0.086397 10.283202 0.000000 0.000000 29.822811 -7.874106 -5.629282 -33.476563 9.638673 8.525392 22.552629 -14.746444 28.828890 -5.087892 -12.490232 36.923832 2.000000 -2.000000 0.000000 -52.128906 -4.824219 -4.883635 -115.465424 1.573587 -4.457907 37.308266 -56.598347 -104.623009 -2.000000 2.000000 0.000000 54.111328 29.384766 72.812500 116.415886 -11.686156 -4.491578 11.597297 14.678861 -26.377672 7.596311 5.732187 35.270866 2.576338 -4.658696 -0.118493 -16.406242 -0.023544 0.020112 -24.460493 -4.559809 1.173338 17.264833 4.537940 0.320194 -2.629145 -20.949810 -8.768991 
-0.032981 47.376778 -0.199805 10.283202 0.000000 0.000000 29.822811 -7.874106 -5.629282 -33.427734 9.628906 16.914064 25.260500 -19.069071 26.226734 -5.595705 -7.949218 26.621098 2.000000 -2.000000 0.000000 -51.855469 -4.794922 -4.941407 -115.455399 1.554645 -4.447045 37.287354 -56.599033 -104.622459 -2.000000 2.000000 0.000000 52.890625 32.695309 71.753326 113.085480 -8.612153 -4.533016 13.154470 3.523952 -27.035650 5.199841 7.418958 35.099205 9.082637 -4.655749 -0.416770 -18.896477 0.020314 0.000681 -28.652620 -4.452143 1.427110 24.364044 4.501813 0.384245 -4.355332 -20.677181 -9.452572 
-0.074409 46.986668 -0.372905 10.283202 0.000000 0.000000 29.822811 -7.874106 -5.629282 -33.417973 9.648438 25.312498 28.292072 -23.268793 23.263254 -6.884765 -3.603516 16.483761 2.000000 -2.000000 0.000000 -51.601563 -4.785156 -5.000000 -115.455658 1.573587 -4.457907 37.288410 -56.608780 -104.641998 -2.000000 2.000000 0.000000 51.562500 35.820313 70.634773 109.779655 -5.556150 -4.432479 14.832739 -7.577245 -28.017488 2.811851 9.082263 34.884228 15.435975 -4.596376 -0.689129 -21.435532 0.025211 0.015439 -32.875034 -4.345128 1.570315 31.494259 4.438318 0.542117 -6.078190 -20.391371 -10.197164 
-0.076640 46.670174 -0.565490 10.283202 0.000000 0.000000 29.822811 -7.874106 -5.629282 -33.369141 9.648438 33.710938 31.610357 -27.335596 20.032360 -8.925782 0.478516 6.308586 2.000000 -2.000000 0.000000 -51.337891 -4.755859 -5.048828 -115.455399 1.554645 -4.447045 37.267498 -56.609463 -104.641449 -2.000000 2.000000 0.000000 50.058594 39.072266 69.365234 106.477234 -2.493422 -4.109734 16.794188 -18.677402 -29.386448 0.369044 10.719463 34.527279 21.940441 -4.501433 -0.900022 -23.925749 -0.026895 0.096286 -37.163181 -4.257228 1.742383 38.643826 4.328647 0.600441 -7.739530 -20.068455 -10.855128 
-0.163643 46.206459 -0.859207 10.283202 0.000000 0.000000 29.822811 -7.874106 -5.629282 -33.388672 9.648438 41.923832 35.338856 -31.137604 16.349577 -11.669922 4.111328 -4.082031 2.000000 -2.000000 0.000000 -51.054688 -4.746094 -5.108228 -115.465424 1.573587 -4.457907 37.258102 -56.619549 -104.650948 -2.000000 2.000000 0.000000 48.417973 42.177738 67.838585 103.231293 0.447254 -3.706445 19.241087 -29.665806 -31.326799 -2.092246 12.435891 34.075249 28.237934 -4.405080 -1.142415 -26.513605 -0.059989 0.143008 -41.378796 -4.091285 1.871574 45.639935 4.269932 0.666587 -9.435363 -19.764244 -11.529401 
-0.077056 46.662815 -0.564908 10.283202 0.000000 0.000000 29.822811 -7.874106 -5.629282 -33.369141 9.648438 33.710938 31.626249 -32.942307 23.015081 -11.445313 -2.158203 -4.277345 2.000000 -2.000000 0.000000 -51.337891 -4.765625 -5.048828 -115.465424 1.573587 -4.457907 27.607267 -57.874283 -97.162956 -2.000000 2.000000 0.000000 50.039063 39.208984 69.327751 106.516792 -2.521554 -4.130901 16.783625 -18.726048 -29.396734 0.369044 10.719464 34.527279 21.950405 -4.501493 -0.900811 -23.974566 -0.021936 0.110840 -37.163181 -4.257228 1.742382 38.661949 4.329928 0.640439 -7.752356 -20.089584 -10.877435 
-0.074409 46.986668 -0.372905 10.283202 0.000000 0.000000 29.822811 -7.874106 -5.629282 -33.417973 9.648438 25.312498 27.558268 -34.384525 30.039204 -11.240234 -8.388671 -4.501954 2.000000 -2.000000 0.000000 -51.611332 -4.785156 -5.000000 -115.465424 1.573587 -4.457907 17.209156 -58.413532 -89.012573 -2.000000 2.000000 0.000000 51.542969 35.917969 70.634773 109.750626 -5.507403 -4.429690 14.842897 -7.548108 -28.036470 2.811851 9.082263 34.884228 15.446128 -4.596518 -0.689918 -21.445309 0.020664 -0.009848 -32.994835 -4.335749 1.573193 31.595909 4.422978 0.517051 -6.060249 -20.393702 -10.172567 
-0.032981 47.369419 -0.199805 10.283202 0.000000 0.000000 29.822811 -7.874106 -5.629282 -33.427734 9.628906 16.914064 23.274380 -35.322407 37.230896 -10.947267 -14.648437 -4.794923 2.000000 -2.000000 0.000000 -51.865234 -4.804688 -4.942225 -115.465424 1.573587 -4.457907 7.063997 -58.158775 -81.013847 -2.000000 2.000000 0.000000 52.880859 32.783203 71.748047 113.075287 -8.660900 -4.535811 13.153905 3.484893 -27.046015 5.199841 7.418958 35.099205 9.095125 -4.652235 -0.427068 -18.896467 0.019856 0.022711 -28.737465 -4.462616 1.396608 24.491159 4.511669 0.406138 -4.366816 -20.702898 -9.469071 
-0.013603 47.958256 -0.086750 10.283202 0.000000 0.000000 29.822811 -7.874106 -5.629282 -33.476563 9.638673 8.525392 18.741789 -35.867527 44.689892 -10.644530 -20.888670 -5.101139 2.000000 -2.000000 0.000000 -52.128906 -4.824219 -4.883635 -115.465424 1.573587 -4.457907 -3.087795 -57.153210 -73.066116 -2.000000 2.000000 0.000000 54.101563 29.550779 72.729424 116.310349 -11.673068 -4.547515 11.607721 14.717794 -26.367355 7.596311 5.732187 35.270866 2.576338 -4.658696 -0.118493 -16.464834 0.008836 0.026999 -24.470402 -4.559811 1.172993 17.298092 4.526397 0.321758 -2.635016 -20.927309 -8.769241 
